# xmcd CD database file
#
# Track frame offsets:
#	150
#	20877
#	45117
#	57811
#	77799
#	99764
#	117305
#	134560
#	154207
#	172289
#	192040
#	205324
#	223700
#	240712
#	268073
#	286890
#	305999
#
# Disc length: 4376 seconds
#
# Revision: 0
# Processed by: cddbd v1.5PL3 Copyright (c) Steve Scherf et al.
# Submitted via: CDex 1.51
#
DISCID=fc111611
DTITLE=Bill Douglas - Feast
DYEAR=2001
DGENRE=New Age
TTITLE0=Feast
TTITLE1=Banana
TTITLE2=Farewell to Stromness
TTITLE3=Highland
TTITLE4=Steppin' Out With My Baby
TTITLE5=Tango Melancolico
TTITLE6=Funk for Spain
TTITLE7=Powerhouse
TTITLE8=Yesnaby Ground
TTITLE9=Emigrant's Farewell
TTITLE10=Valstango
TTITLE11=Odes to the Americas: I Good
TTITLE12=Odes to the Americas: II Blue
TTITLE13=Odes to the Americas III With You I Dance
TTITLE14=Jewel
TTITLE15=Bassango
TTITLE16=Dinner Music for a Pack of Hungry Cannibals
EXTD=YEAR: 2001
EXTT0=
EXTT1=
EXTT2=
EXTT3=
EXTT4=
EXTT5=
EXTT6=
EXTT7=
EXTT8=
EXTT9=
EXTT10=
EXTT11=
EXTT12=
EXTT13=
EXTT14=
EXTT15=
EXTT16=
PLAYORDER=
